<svg class="comet" xmlns="http://www.w3.org/2000/svg" xmlns:xlink="http://www.w3.org/1999/xlink" width="150" height="150" viewBox="0 0 100 100"><g transform="translate(50 50) scale(-0.69 0.69) rotate(0) translate(-50 -50)" style="fill:#333333"><svg fill="#333333" xmlns="http://www.w3.org/2000/svg" viewBox="0 0 48 48" x="0px" y="0px"><g><path d="M19.8,27.137a4.88,4.88,0,0,1-1.262-.887c-1.37-1.485-2.244-2.284-4.247-1.443-2.134.9-4.436,2.1-5.331,4.288a6.936,6.936,0,0,1-.791,1.364c-.9,1.3-1.343,2.256.105,4.578l.872,1.636c.886,1.662,1.745,2.867,4.727,3.232a8.42,8.42,0,0,0,1.022.066,7.715,7.715,0,0,0,3.821-1.16c.494-.252,1.04-.53,1.691-.815,2.966-1.3,2.943-2.4,2.385-6.414C22.374,28.575,21.006,27.811,19.8,27.137Zm.206,9.943c-.672.294-1.235.58-1.744.84a6.32,6.32,0,0,1-4.268.993c-2.43-.3-3.1-1.093-3.965-2.711l-.881-1.651c-.005-.01-.011-.02-.017-.03-1.215-1.942-.833-2.493-.141-3.492a7.822,7.822,0,0,0,.894-1.555c.758-1.847,2.849-2.929,4.793-3.745a2.775,2.775,0,0,1,1.047-.264c.687,0,1.172.48,2.079,1.463a5.755,5.755,0,0,0,1.509,1.082,4.143,4.143,0,0,1,2.49,3.709C22.34,35.6,22.322,36.066,20.005,37.08Zm9.169-11.271c.466-.411.883-.731,1.26-1.021,1.463-1.128,2.429-1.874,3.3-5.341a4.554,4.554,0,0,1,1.908-3.079,9.623,9.623,0,0,0,3.124-4.153,29.215,29.215,0,0,1,2.7-4.345.5.5,0,0,0-.635-.743,13.854,13.854,0,0,0-4.336,3.433,3.665,3.665,0,0,1-2.7,1.612c-3.721.469-4.423,1.414-5.041,2.248a2.7,2.7,0,0,1-2.04,1.225c-3.82.783-4.677,1.55-5.431,2.226a4.427,4.427,0,0,1-2.141,1.138A4.788,4.788,0,0,0,16.1,21.022a5.689,5.689,0,0,1-2.567,2.021c-2.591,1.176-5.216,2.556-6.351,5.322a5.318,5.318,0,0,1-.594,1C5.5,30.939,4.6,32.748,6.6,35.981l.85,1.595a7.107,7.107,0,0,0,6.187,4.234,10.106,10.106,0,0,0,1.247.08,9.666,9.666,0,0,0,4.725-1.381c.458-.234.963-.491,1.565-.755,3.135-1.371,3.758-3.031,3.81-5.616.015-.763.03-.788.826-2.073l.433-.7a9.511,9.511,0,0,0,.945-2.251A6.266,6.266,0,0,1,29.174,25.809Zm-2.939,3a8.551,8.551,0,0,1-.844,2.029l-.431.7c-.827,1.336-.954,1.542-.975,2.579-.047,2.313-.521,3.544-3.21,4.72-.623.272-1.145.538-1.642.792a8.574,8.574,0,0,1-4.248,1.26,9.333,9.333,0,0,1-1.126-.072C10.35,40.4,9.285,38.89,8.333,37.1l-.866-1.622c-1.7-2.752-1.031-4.141-.056-5.547a6.219,6.219,0,0,0,.7-1.19c1-2.429,3.431-3.7,5.839-4.793A6.627,6.627,0,0,0,16.9,21.629,3.864,3.864,0,0,1,19.4,19.972a5.375,5.375,0,0,0,2.539-1.356c.692-.621,1.409-1.262,4.965-1.992a3.626,3.626,0,0,0,2.642-1.608c.524-.706,1.065-1.436,4.363-1.852a4.6,4.6,0,0,0,3.323-1.943,12.808,12.808,0,0,1,2.026-1.933,21.262,21.262,0,0,0-1.41,2.512,8.652,8.652,0,0,1-2.837,3.786A5.48,5.48,0,0,0,32.76,19.2c-.782,3.129-1.547,3.719-2.937,4.791-.391.3-.824.635-1.31,1.061A7.193,7.193,0,0,0,26.235,28.81ZM29.2,36.669a.5.5,0,0,1,0,.708l-.4.4a.5.5,0,1,1-.708-.707l.4-.4A.5.5,0,0,1,29.2,36.669Zm2.1.4a.5.5,0,0,1-.354.854.5.5,0,0,1-.353-.147l-.4-.4a.5.5,0,0,1,.707-.707Zm-1.115-1.39a.5.5,0,0,1,0-.707l.4-.4a.5.5,0,0,1,.707.707l-.4.4a.5.5,0,0,1-.707,0Zm-2.1-.4a.5.5,0,1,1,.707-.707l.4.4a.5.5,0,0,1-.354.854.5.5,0,0,1-.353-.147Zm-16.02-4.871a1.353,1.353,0,1,0,1.353,1.353A1.355,1.355,0,0,0,12.062,30.408Zm0,1.7a.353.353,0,1,1,.353-.352A.353.353,0,0,1,12.062,32.113Zm1.7,2.352a.5.5,0,0,0-.333.263c-.048.1-.092.173-.127.233-.3.517-.192.759.165,1.268a1.27,1.27,0,0,0,1.033.549,1.154,1.154,0,0,0,.308-.041,1.277,1.277,0,0,0,.9-1.2.994.994,0,0,0-.33-.858A2.042,2.042,0,0,0,13.763,34.465Zm.784,1.307a.251.251,0,0,1-.26-.116c-.029-.042-.084-.121-.125-.183l.007-.012L14.2,35.4c.232-.025.461-.007.513.058C14.708,35.543,14.679,35.736,14.547,35.772Zm4.224-3.9a1.152,1.152,0,0,0-.621.863,1.838,1.838,0,0,0,.879,1.85,1.256,1.256,0,0,0,.607.164,1.06,1.06,0,0,0,.454-.1,1.157,1.157,0,0,0,.622-.863,1.772,1.772,0,0,0-.159-1.059A1.4,1.4,0,0,0,18.771,31.867Zm.89,1.872a.2.2,0,0,1-.148-.034.768.768,0,0,1-.3-.346.777.777,0,0,1-.079-.452.2.2,0,0,1,.067-.136.058.058,0,0,1,.028-.006.619.619,0,0,1,.422.385h0a.777.777,0,0,1,.078.452C19.714,33.682,19.684,33.729,19.661,33.739Zm-2-3.873c.029.238.116.965-.381,1.292a.783.783,0,0,1-.438.128,1.029,1.029,0,0,1-.507-.139.5.5,0,0,1,.349-.923,2.023,2.023,0,0,0-.016-.238.537.537,0,0,0-.074-.262,2.663,2.663,0,0,0-.285.161.5.5,0,0,1-.6-.8,1.427,1.427,0,0,1,1.3-.27A1.172,1.172,0,0,1,17.665,29.866ZM29.547,17.945a.5.5,0,0,1,.057.607l-3.827,6.091.528-.171a.5.5,0,0,1,.6.7l-2.77,5.566a.5.5,0,0,1-.448.277.489.489,0,0,1-.222-.052.5.5,0,0,1-.225-.67l2.24-4.5-.707.229a.5.5,0,0,1-.578-.742l3.562-5.669-2.554,1.358a.5.5,0,0,1-.725-.538l.094-.482-6.656,4.1a.5.5,0,1,1-.524-.852L25.023,18.5a.5.5,0,0,1,.753.522l-.112.571,3.281-1.745A.5.5,0,0,1,29.547,17.945Zm-13.4-4.938a.5.5,0,0,1,.253-.66L28.138,7.112a.5.5,0,1,1,.408.913L16.8,13.26a.488.488,0,0,1-.2.043A.5.5,0,0,1,16.143,13.007Zm21.623,9.549-5.688,6.375a.5.5,0,0,1-.746-.666L37.02,21.89a.5.5,0,0,1,.746.666Zm4.751,1.614-6.86,11.668a.5.5,0,0,1-.862-.506l6.86-11.668a.5.5,0,1,1,.862.506ZM9.11,20.963a.5.5,0,0,1,.2-.678l8.95-4.876a.5.5,0,1,1,.479.878L9.788,21.163a.5.5,0,0,1-.678-.2Zm29.659-.9a.5.5,0,1,1-.5.5A.5.5,0,0,1,38.769,20.066ZM30.037,6.61a.5.5,0,1,1,.5.5A.5.5,0,0,1,30.037,6.61Z"></path></g></svg></g></svg>